<?xml version="1.0" encoding="utf-8"?>
<!-- Generator: Adobe Illustrator 21.1.0, SVG Export Plug-In . SVG Version: 6.00 Build 0)  -->
<svg version="1.1" id="Capa_1" xmlns="http://www.w3.org/2000/svg" xmlns:xlink="http://www.w3.org/1999/xlink" x="0px" y="0px"
	 viewBox="0 0 486.4 486.4" style="enable-background:new 0 0 486.4 486.4;" xml:space="preserve">
<style type="text/css">
	.st0{fill:#DFDBDB;}
</style>
<g>
	<g>
		<path class="st0" d="M464.4,0H21.9C9.8,0,0,9.8,0,21.9v442.6c0,12.1,9.8,21.9,21.9,21.9h442.5c12.1,0,22-9.8,22-21.9V21.9
			C486.4,9.8,476.5,0,464.4,0z M243.2,158.3c46.9,0,84.9,38,84.9,84.9s-38,84.9-84.9,84.9s-84.9-38-84.9-84.9
			S196.3,158.3,243.2,158.3z M425.6,425.6H60.8V212.8h40c-2.1,9.8-3.3,20-3.3,30.4c0,80.3,65.4,145.7,145.7,145.7
			c80.3,0,145.7-65.3,145.7-145.7c0-10.4-1.2-20.6-3.3-30.4h40L425.6,425.6L425.6,425.6z M425.6,152h-91.2V60.8h91.2V152z"/>
	</g>
</g>
</svg>
