<?xml version="1.0" encoding="utf-8"?>
<!-- Generator: Adobe Illustrator 21.1.0, SVG Export Plug-In . SVG Version: 6.00 Build 0)  -->
<svg version="1.1" id="Capa_1" xmlns="http://www.w3.org/2000/svg" xmlns:xlink="http://www.w3.org/1999/xlink" x="0px" y="0px"
	 viewBox="0 0 242.7 242.7" style="enable-background:new 0 0 242.7 242.7;" xml:space="preserve">
<style type="text/css">
	.st0{fill:#DFDBDB;}
</style>
<path class="st0" d="M0,0v242.7h242.7V0H0z M37.5,153.1c-1.9,0-3.4-5.9-3.4-13.3s1.5-13.3,3.4-13.3s3.4,5.9,3.4,13.3
	S39.3,153.1,37.5,153.1z M54.4,160.9c-1.9,0-3.4-11.2-3.4-25s1.5-25,3.4-25s3.4,11.2,3.4,25S56.3,160.9,54.4,160.9z M70.7,160.9
	c-1.9,0-3.4-14-3.4-31.4s1.5-31.4,3.4-31.4s3.4,14,3.4,31.4C74.1,146.9,72.6,160.9,70.7,160.9z M87.9,160.9
	c-1.9,0-3.4-13.6-3.4-30.5S86,100,87.9,100c1.9,0,3.4,13.7,3.4,30.5S89.8,160.9,87.9,160.9z M104.3,160.9c-1.9,0-3.4-15.4-3.4-34.4
	s1.5-34.4,3.4-34.4s3.4,15.4,3.4,34.4C107.7,145.6,106.2,160.9,104.3,160.9z M199,154.9c-7.3,3.9-15.9,4.7-15.9,4.7h-66.4V84.4
	c0,0,26.8-9.1,42.9,6.2s13.5,28.1,13.5,28.1s19.8-7.5,30.2,5.2C213.9,136.7,206.3,151,199,154.9z"/>
</svg>
